G04*
G04 #@! TF.GenerationSoftware,Altium Limited,Altium Designer,19.1.6 (110)*
G04*
G04 Layer_Physical_Order=2*
G04 Layer_Color=16711680*
%FSLAX23Y23*%
%MOIN*%
G70*
G01*
G75*
%ADD10C,0.010*%
%ADD18C,0.060*%
%ADD19R,0.060X0.060*%
%ADD20R,0.059X0.059*%
%ADD21C,0.059*%
%ADD22R,0.059X0.059*%
%ADD23C,0.055*%
G36*
X3870Y2785D02*
X1655D01*
Y4880D01*
X3870D01*
Y2785D01*
D02*
G37*
%LPC*%
G36*
X2214Y4824D02*
Y4790D01*
X2248D01*
X2247Y4795D01*
X2243Y4805D01*
X2237Y4813D01*
X2229Y4820D01*
X2219Y4824D01*
X2214Y4824D01*
D02*
G37*
G36*
X2204D02*
X2198Y4824D01*
X2189Y4820D01*
X2181Y4813D01*
X2174Y4805D01*
X2170Y4795D01*
X2170Y4790D01*
X2204D01*
Y4824D01*
D02*
G37*
G36*
X2809Y4825D02*
X2798Y4824D01*
X2789Y4820D01*
X2781Y4813D01*
X2774Y4805D01*
X2770Y4795D01*
X2770Y4790D01*
X2764Y4788D01*
X2757Y4796D01*
X2752Y4799D01*
X2746Y4800D01*
X2745D01*
X2743Y4805D01*
X2737Y4813D01*
X2729Y4820D01*
X2719Y4824D01*
X2709Y4825D01*
X2698Y4824D01*
X2689Y4820D01*
X2681Y4813D01*
X2674Y4805D01*
X2670Y4795D01*
X2669Y4785D01*
X2670Y4775D01*
X2674Y4765D01*
X2681Y4757D01*
X2689Y4750D01*
X2698Y4746D01*
X2709Y4745D01*
X2719Y4746D01*
X2729Y4750D01*
X2737Y4757D01*
X2741Y4762D01*
X2747Y4762D01*
X3165Y4344D01*
Y4270D01*
X3166Y4264D01*
X3169Y4259D01*
X3275Y4153D01*
X3273Y4150D01*
X3272Y4140D01*
X3273Y4130D01*
X3277Y4121D01*
X3283Y4113D01*
X3291Y4107D01*
X3300Y4103D01*
X3310Y4102D01*
X3320Y4103D01*
X3329Y4107D01*
X3337Y4113D01*
X3343Y4121D01*
X3347Y4130D01*
X3348Y4140D01*
X3347Y4150D01*
X3343Y4159D01*
X3337Y4167D01*
X3329Y4173D01*
X3320Y4177D01*
X3310Y4178D01*
X3300Y4177D01*
X3297Y4175D01*
X3195Y4276D01*
Y4290D01*
X3271D01*
Y4370D01*
X3191D01*
Y4368D01*
X3186Y4366D01*
X2812Y4741D01*
X2814Y4746D01*
X2819Y4746D01*
X2829Y4750D01*
X2837Y4757D01*
X2843Y4765D01*
X2847Y4775D01*
X2849Y4785D01*
X2847Y4795D01*
X2843Y4805D01*
X2837Y4813D01*
X2829Y4820D01*
X2819Y4824D01*
X2809Y4825D01*
D02*
G37*
G36*
X2248Y4780D02*
X2214D01*
Y4746D01*
X2219Y4746D01*
X2229Y4750D01*
X2237Y4757D01*
X2243Y4765D01*
X2247Y4775D01*
X2248Y4780D01*
D02*
G37*
G36*
X2204D02*
X2170D01*
X2170Y4775D01*
X2174Y4765D01*
X2181Y4757D01*
X2189Y4750D01*
X2198Y4746D01*
X2204Y4746D01*
Y4780D01*
D02*
G37*
G36*
X2148Y4825D02*
X2069D01*
Y4745D01*
X2148D01*
Y4825D01*
D02*
G37*
G36*
X3671Y4825D02*
X3661Y4824D01*
X3651Y4820D01*
X3643Y4813D01*
X3637Y4805D01*
X3633Y4795D01*
X3631Y4785D01*
X3633Y4775D01*
X3637Y4765D01*
X3643Y4757D01*
X3651Y4750D01*
X3661Y4746D01*
X3671Y4745D01*
X3682Y4746D01*
X3691Y4750D01*
X3699Y4757D01*
X3706Y4765D01*
X3710Y4775D01*
X3711Y4785D01*
X3710Y4795D01*
X3706Y4805D01*
X3699Y4813D01*
X3691Y4820D01*
X3682Y4824D01*
X3671Y4825D01*
D02*
G37*
G36*
X3571D02*
X3561Y4824D01*
X3551Y4820D01*
X3543Y4813D01*
X3537Y4805D01*
X3533Y4795D01*
X3531Y4785D01*
X3533Y4775D01*
X3537Y4765D01*
X3543Y4757D01*
X3551Y4750D01*
X3561Y4746D01*
X3571Y4745D01*
X3582Y4746D01*
X3591Y4750D01*
X3599Y4757D01*
X3606Y4765D01*
X3610Y4775D01*
X3611Y4785D01*
X3610Y4795D01*
X3606Y4805D01*
X3599Y4813D01*
X3591Y4820D01*
X3582Y4824D01*
X3571Y4825D01*
D02*
G37*
G36*
X3471D02*
X3461Y4824D01*
X3451Y4820D01*
X3443Y4813D01*
X3437Y4805D01*
X3433Y4795D01*
X3431Y4785D01*
X3433Y4775D01*
X3437Y4765D01*
X3443Y4757D01*
X3451Y4750D01*
X3461Y4746D01*
X3471Y4745D01*
X3482Y4746D01*
X3491Y4750D01*
X3499Y4757D01*
X3506Y4765D01*
X3510Y4775D01*
X3511Y4785D01*
X3510Y4795D01*
X3506Y4805D01*
X3499Y4813D01*
X3491Y4820D01*
X3482Y4824D01*
X3471Y4825D01*
D02*
G37*
G36*
X2609D02*
X2598Y4824D01*
X2589Y4820D01*
X2581Y4813D01*
X2574Y4805D01*
X2570Y4795D01*
X2569Y4785D01*
X2570Y4775D01*
X2574Y4765D01*
X2581Y4757D01*
X2589Y4750D01*
X2598Y4746D01*
X2609Y4745D01*
X2619Y4746D01*
X2629Y4750D01*
X2637Y4757D01*
X2643Y4765D01*
X2647Y4775D01*
X2649Y4785D01*
X2647Y4795D01*
X2643Y4805D01*
X2637Y4813D01*
X2629Y4820D01*
X2619Y4824D01*
X2609Y4825D01*
D02*
G37*
G36*
X2509D02*
X2498Y4824D01*
X2489Y4820D01*
X2481Y4813D01*
X2474Y4805D01*
X2470Y4795D01*
X2469Y4785D01*
X2470Y4775D01*
X2474Y4765D01*
X2481Y4757D01*
X2489Y4750D01*
X2498Y4746D01*
X2509Y4745D01*
X2519Y4746D01*
X2529Y4750D01*
X2537Y4757D01*
X2543Y4765D01*
X2547Y4775D01*
X2549Y4785D01*
X2547Y4795D01*
X2543Y4805D01*
X2537Y4813D01*
X2529Y4820D01*
X2519Y4824D01*
X2509Y4825D01*
D02*
G37*
G36*
X2409D02*
X2398Y4824D01*
X2389Y4820D01*
X2381Y4813D01*
X2374Y4805D01*
X2370Y4795D01*
X2369Y4785D01*
X2370Y4775D01*
X2374Y4765D01*
X2381Y4757D01*
X2389Y4750D01*
X2398Y4746D01*
X2409Y4745D01*
X2419Y4746D01*
X2429Y4750D01*
X2437Y4757D01*
X2443Y4765D01*
X2447Y4775D01*
X2449Y4785D01*
X2447Y4795D01*
X2443Y4805D01*
X2437Y4813D01*
X2429Y4820D01*
X2419Y4824D01*
X2409Y4825D01*
D02*
G37*
G36*
X2309D02*
X2298Y4824D01*
X2289Y4820D01*
X2281Y4813D01*
X2274Y4805D01*
X2270Y4795D01*
X2269Y4785D01*
X2270Y4775D01*
X2274Y4765D01*
X2281Y4757D01*
X2289Y4750D01*
X2298Y4746D01*
X2309Y4745D01*
X2319Y4746D01*
X2329Y4750D01*
X2337Y4757D01*
X2343Y4765D01*
X2347Y4775D01*
X2349Y4785D01*
X2347Y4795D01*
X2343Y4805D01*
X2337Y4813D01*
X2329Y4820D01*
X2319Y4824D01*
X2309Y4825D01*
D02*
G37*
G36*
X3371D02*
X3361Y4824D01*
X3351Y4820D01*
X3343Y4813D01*
X3337Y4805D01*
X3333Y4795D01*
X3331Y4785D01*
X3333Y4775D01*
X3337Y4765D01*
X3343Y4757D01*
X3351Y4750D01*
X3361Y4746D01*
X3371Y4745D01*
X3382Y4746D01*
X3391Y4750D01*
X3395Y4753D01*
X3773Y4375D01*
X3771Y4370D01*
X3765Y4369D01*
X3755Y4365D01*
X3746Y4359D01*
X3745Y4357D01*
X3740Y4358D01*
Y4365D01*
X3739Y4371D01*
X3736Y4376D01*
X3535Y4577D01*
X3530Y4580D01*
X3524Y4581D01*
X3497D01*
X3308Y4770D01*
X3310Y4775D01*
X3311Y4785D01*
X3310Y4795D01*
X3306Y4805D01*
X3299Y4813D01*
X3291Y4820D01*
X3282Y4824D01*
X3271Y4825D01*
X3261Y4824D01*
X3251Y4820D01*
X3243Y4813D01*
X3237Y4805D01*
X3233Y4795D01*
X3231Y4785D01*
X3233Y4775D01*
X3237Y4765D01*
X3243Y4757D01*
X3251Y4750D01*
X3261Y4746D01*
X3271Y4745D01*
X3282Y4746D01*
X3286Y4748D01*
X3480Y4555D01*
X3484Y4552D01*
X3490Y4551D01*
X3518D01*
X3694Y4375D01*
X3692Y4370D01*
X3635D01*
Y4343D01*
X3630Y4343D01*
X3629Y4347D01*
X3626Y4352D01*
X3208Y4770D01*
X3210Y4775D01*
X3211Y4785D01*
X3210Y4795D01*
X3206Y4805D01*
X3199Y4813D01*
X3191Y4820D01*
X3182Y4824D01*
X3171Y4825D01*
X3161Y4824D01*
X3151Y4820D01*
X3143Y4813D01*
X3137Y4805D01*
X3133Y4795D01*
X3131Y4785D01*
X3133Y4776D01*
X3128Y4774D01*
X3110Y4791D01*
X3110Y4795D01*
X3106Y4805D01*
X3099Y4813D01*
X3091Y4820D01*
X3082Y4824D01*
X3071Y4825D01*
X3061Y4824D01*
X3051Y4820D01*
X3043Y4813D01*
X3037Y4805D01*
X3033Y4795D01*
X3031Y4785D01*
X3033Y4775D01*
X3037Y4765D01*
X3043Y4757D01*
X3051Y4750D01*
X3061Y4746D01*
X3071Y4745D01*
X3082Y4746D01*
X3091Y4750D01*
X3099Y4757D01*
X3101Y4757D01*
X3484Y4375D01*
X3482Y4370D01*
X3413D01*
Y4351D01*
X3408Y4349D01*
X3011Y4746D01*
Y4760D01*
X3011Y4762D01*
Y4825D01*
X2932D01*
Y4745D01*
X2980D01*
Y4740D01*
X2982Y4734D01*
X2985Y4729D01*
X3340Y4374D01*
X3337Y4369D01*
X3336Y4370D01*
Y4335D01*
X3371D01*
X3370Y4336D01*
X3375Y4339D01*
X3391Y4323D01*
Y4174D01*
X3388Y4173D01*
X3380Y4167D01*
X3374Y4159D01*
X3370Y4150D01*
X3369Y4140D01*
X3370Y4130D01*
X3374Y4121D01*
X3380Y4113D01*
X3388Y4107D01*
X3397Y4103D01*
X3407Y4102D01*
X3417Y4103D01*
X3426Y4107D01*
X3434Y4113D01*
X3440Y4121D01*
X3444Y4130D01*
X3445Y4140D01*
X3444Y4150D01*
X3440Y4159D01*
X3434Y4167D01*
X3426Y4173D01*
X3421Y4175D01*
Y4290D01*
X3487D01*
X3490Y4285D01*
X3490Y4283D01*
Y4175D01*
X3485Y4173D01*
X3477Y4167D01*
X3471Y4159D01*
X3467Y4150D01*
X3466Y4140D01*
X3467Y4130D01*
X3471Y4121D01*
X3477Y4113D01*
X3485Y4107D01*
X3494Y4103D01*
X3504Y4102D01*
X3514Y4103D01*
X3523Y4107D01*
X3531Y4113D01*
X3537Y4121D01*
X3541Y4130D01*
X3542Y4140D01*
X3541Y4150D01*
X3537Y4159D01*
X3531Y4167D01*
X3523Y4173D01*
X3520Y4174D01*
Y4279D01*
X3521Y4284D01*
Y4298D01*
X3526Y4300D01*
X3533Y4295D01*
X3543Y4291D01*
X3548Y4290D01*
Y4330D01*
Y4370D01*
X3543Y4369D01*
X3533Y4365D01*
X3526Y4360D01*
X3521Y4362D01*
Y4374D01*
X3520Y4380D01*
X3517Y4385D01*
X3160Y4742D01*
X3162Y4746D01*
X3171Y4745D01*
X3182Y4746D01*
X3186Y4748D01*
X3560Y4374D01*
X3558Y4370D01*
Y4330D01*
Y4290D01*
X3563Y4291D01*
X3573Y4295D01*
X3582Y4301D01*
X3588Y4310D01*
X3592Y4320D01*
X3593Y4330D01*
X3593Y4331D01*
X3598Y4334D01*
X3600Y4333D01*
Y4178D01*
X3591Y4177D01*
X3582Y4173D01*
X3574Y4167D01*
X3568Y4159D01*
X3564Y4150D01*
X3563Y4140D01*
X3564Y4130D01*
X3568Y4121D01*
X3574Y4113D01*
X3582Y4107D01*
X3591Y4103D01*
X3601Y4102D01*
X3611Y4103D01*
X3620Y4107D01*
X3628Y4113D01*
X3634Y4121D01*
X3638Y4130D01*
X3639Y4140D01*
X3638Y4150D01*
X3634Y4159D01*
X3630Y4164D01*
Y4289D01*
X3635Y4290D01*
X3635Y4290D01*
X3710D01*
Y4180D01*
X3706Y4177D01*
X3698Y4178D01*
X3688Y4177D01*
X3679Y4173D01*
X3671Y4167D01*
X3665Y4159D01*
X3661Y4150D01*
X3660Y4140D01*
X3661Y4130D01*
X3665Y4121D01*
X3671Y4113D01*
X3679Y4107D01*
X3688Y4103D01*
X3698Y4102D01*
X3708Y4103D01*
X3717Y4107D01*
X3725Y4113D01*
X3731Y4121D01*
X3735Y4130D01*
X3736Y4140D01*
X3735Y4150D01*
X3731Y4158D01*
X3736Y4162D01*
X3739Y4167D01*
X3740Y4173D01*
Y4302D01*
X3745Y4303D01*
X3746Y4301D01*
X3755Y4295D01*
X3765Y4291D01*
X3770Y4290D01*
Y4330D01*
X3780D01*
Y4290D01*
X3785Y4291D01*
X3795Y4295D01*
X3804Y4301D01*
X3805Y4303D01*
X3810Y4302D01*
Y4180D01*
X3805Y4177D01*
X3795Y4178D01*
X3785Y4177D01*
X3776Y4173D01*
X3768Y4167D01*
X3762Y4159D01*
X3758Y4150D01*
X3757Y4140D01*
X3758Y4130D01*
X3762Y4121D01*
X3768Y4113D01*
X3776Y4107D01*
X3785Y4103D01*
X3795Y4102D01*
X3805Y4103D01*
X3814Y4107D01*
X3822Y4113D01*
X3828Y4121D01*
X3832Y4130D01*
X3833Y4140D01*
X3832Y4150D01*
X3830Y4154D01*
X3836Y4159D01*
X3839Y4164D01*
X3840Y4170D01*
Y4345D01*
X3839Y4351D01*
X3836Y4356D01*
X3411Y4781D01*
X3411Y4785D01*
X3410Y4795D01*
X3406Y4805D01*
X3399Y4813D01*
X3391Y4820D01*
X3382Y4824D01*
X3371Y4825D01*
D02*
G37*
G36*
X3326Y4370D02*
X3321Y4369D01*
X3311Y4365D01*
X3302Y4359D01*
X3296Y4350D01*
X3292Y4340D01*
X3291Y4335D01*
X3326D01*
Y4370D01*
D02*
G37*
G36*
X3114D02*
Y4335D01*
X3149D01*
X3148Y4340D01*
X3144Y4350D01*
X3138Y4359D01*
X3129Y4365D01*
X3119Y4369D01*
X3114Y4370D01*
D02*
G37*
G36*
X3104D02*
X3099Y4369D01*
X3089Y4365D01*
X3080Y4359D01*
X3074Y4350D01*
X3070Y4340D01*
X3069Y4335D01*
X3104D01*
Y4370D01*
D02*
G37*
G36*
X2892D02*
Y4335D01*
X2927D01*
X2926Y4340D01*
X2922Y4350D01*
X2916Y4359D01*
X2907Y4365D01*
X2897Y4369D01*
X2892Y4370D01*
D02*
G37*
G36*
X2882D02*
X2877Y4369D01*
X2867Y4365D01*
X2858Y4359D01*
X2852Y4350D01*
X2848Y4340D01*
X2847Y4335D01*
X2882D01*
Y4370D01*
D02*
G37*
G36*
X2670D02*
Y4335D01*
X2705D01*
X2704Y4340D01*
X2700Y4350D01*
X2694Y4359D01*
X2685Y4365D01*
X2675Y4369D01*
X2670Y4370D01*
D02*
G37*
G36*
X2660D02*
X2655Y4369D01*
X2645Y4365D01*
X2636Y4359D01*
X2630Y4350D01*
X2626Y4340D01*
X2625Y4335D01*
X2660D01*
Y4370D01*
D02*
G37*
G36*
X3371Y4325D02*
X3336D01*
Y4290D01*
X3341Y4291D01*
X3351Y4295D01*
X3360Y4301D01*
X3366Y4310D01*
X3370Y4320D01*
X3371Y4325D01*
D02*
G37*
G36*
X3326D02*
X3291D01*
X3292Y4320D01*
X3296Y4310D01*
X3302Y4301D01*
X3311Y4295D01*
X3321Y4291D01*
X3326Y4290D01*
Y4325D01*
D02*
G37*
G36*
X3149D02*
X3114D01*
Y4290D01*
X3119Y4291D01*
X3129Y4295D01*
X3138Y4301D01*
X3144Y4310D01*
X3148Y4320D01*
X3149Y4325D01*
D02*
G37*
G36*
X3104D02*
X3069D01*
X3070Y4320D01*
X3074Y4310D01*
X3080Y4301D01*
X3089Y4295D01*
X3099Y4291D01*
X3104Y4290D01*
Y4325D01*
D02*
G37*
G36*
X2927D02*
X2892D01*
Y4290D01*
X2897Y4291D01*
X2907Y4295D01*
X2916Y4301D01*
X2922Y4310D01*
X2926Y4320D01*
X2927Y4325D01*
D02*
G37*
G36*
X2882D02*
X2847D01*
X2848Y4320D01*
X2852Y4310D01*
X2858Y4301D01*
X2867Y4295D01*
X2877Y4291D01*
X2882Y4290D01*
Y4325D01*
D02*
G37*
G36*
X2705D02*
X2670D01*
Y4290D01*
X2675Y4291D01*
X2685Y4295D01*
X2694Y4301D01*
X2700Y4310D01*
X2704Y4320D01*
X2705Y4325D01*
D02*
G37*
G36*
X2660D02*
X2625D01*
X2626Y4320D01*
X2630Y4310D01*
X2636Y4301D01*
X2645Y4295D01*
X2655Y4291D01*
X2660Y4290D01*
Y4325D01*
D02*
G37*
G36*
X3049Y4370D02*
X2969D01*
Y4290D01*
X3049D01*
Y4370D01*
D02*
G37*
G36*
X2827D02*
X2747D01*
Y4290D01*
X2827D01*
Y4370D01*
D02*
G37*
G36*
X2605D02*
X2525D01*
Y4290D01*
X2605D01*
Y4370D01*
D02*
G37*
G36*
X1860Y4115D02*
X1780D01*
Y4035D01*
X1860D01*
Y4115D01*
D02*
G37*
G36*
X1820Y3915D02*
X1810Y3914D01*
X1800Y3910D01*
X1792Y3903D01*
X1785Y3895D01*
X1781Y3885D01*
X1780Y3875D01*
X1781Y3865D01*
X1785Y3855D01*
X1792Y3847D01*
X1800Y3840D01*
X1810Y3836D01*
X1820Y3835D01*
X1830Y3836D01*
X1840Y3840D01*
X1848Y3847D01*
X1855Y3855D01*
X1859Y3865D01*
X1860Y3875D01*
X1859Y3885D01*
X1855Y3895D01*
X1848Y3903D01*
X1840Y3910D01*
X1830Y3914D01*
X1820Y3915D01*
D02*
G37*
G36*
X3795Y3878D02*
X3785Y3877D01*
X3776Y3873D01*
X3768Y3867D01*
X3762Y3859D01*
X3758Y3850D01*
X3757Y3840D01*
X3758Y3830D01*
X3762Y3821D01*
X3768Y3813D01*
X3776Y3807D01*
X3785Y3803D01*
X3795Y3802D01*
X3805Y3803D01*
X3814Y3807D01*
X3822Y3813D01*
X3828Y3821D01*
X3832Y3830D01*
X3833Y3840D01*
X3832Y3850D01*
X3828Y3859D01*
X3822Y3867D01*
X3814Y3873D01*
X3805Y3877D01*
X3795Y3878D01*
D02*
G37*
G36*
X3698D02*
X3688Y3877D01*
X3679Y3873D01*
X3671Y3867D01*
X3665Y3859D01*
X3661Y3850D01*
X3660Y3840D01*
X3661Y3830D01*
X3665Y3821D01*
X3671Y3813D01*
X3679Y3807D01*
X3688Y3803D01*
X3698Y3802D01*
X3708Y3803D01*
X3717Y3807D01*
X3725Y3813D01*
X3731Y3821D01*
X3735Y3830D01*
X3736Y3840D01*
X3735Y3850D01*
X3731Y3859D01*
X3725Y3867D01*
X3717Y3873D01*
X3708Y3877D01*
X3698Y3878D01*
D02*
G37*
G36*
X3601D02*
X3591Y3877D01*
X3582Y3873D01*
X3574Y3867D01*
X3568Y3859D01*
X3564Y3850D01*
X3563Y3840D01*
X3564Y3830D01*
X3568Y3821D01*
X3574Y3813D01*
X3582Y3807D01*
X3591Y3803D01*
X3601Y3802D01*
X3611Y3803D01*
X3620Y3807D01*
X3628Y3813D01*
X3634Y3821D01*
X3638Y3830D01*
X3639Y3840D01*
X3638Y3850D01*
X3634Y3859D01*
X3628Y3867D01*
X3620Y3873D01*
X3611Y3877D01*
X3601Y3878D01*
D02*
G37*
G36*
X3504D02*
X3494Y3877D01*
X3485Y3873D01*
X3477Y3867D01*
X3471Y3859D01*
X3467Y3850D01*
X3466Y3840D01*
X3467Y3830D01*
X3471Y3821D01*
X3477Y3813D01*
X3485Y3807D01*
X3494Y3803D01*
X3504Y3802D01*
X3514Y3803D01*
X3523Y3807D01*
X3531Y3813D01*
X3537Y3821D01*
X3541Y3830D01*
X3542Y3840D01*
X3541Y3850D01*
X3537Y3859D01*
X3531Y3867D01*
X3523Y3873D01*
X3514Y3877D01*
X3504Y3878D01*
D02*
G37*
G36*
X3407D02*
X3397Y3877D01*
X3388Y3873D01*
X3380Y3867D01*
X3374Y3859D01*
X3370Y3850D01*
X3369Y3840D01*
X3370Y3830D01*
X3374Y3821D01*
X3380Y3813D01*
X3388Y3807D01*
X3397Y3803D01*
X3407Y3802D01*
X3417Y3803D01*
X3426Y3807D01*
X3434Y3813D01*
X3440Y3821D01*
X3444Y3830D01*
X3445Y3840D01*
X3444Y3850D01*
X3440Y3859D01*
X3434Y3867D01*
X3426Y3873D01*
X3417Y3877D01*
X3407Y3878D01*
D02*
G37*
G36*
X3310D02*
X3300Y3877D01*
X3291Y3873D01*
X3283Y3867D01*
X3277Y3859D01*
X3273Y3850D01*
X3272Y3840D01*
X3273Y3830D01*
X3277Y3821D01*
X3283Y3813D01*
X3291Y3807D01*
X3300Y3803D01*
X3310Y3802D01*
X3320Y3803D01*
X3329Y3807D01*
X3337Y3813D01*
X3343Y3821D01*
X3347Y3830D01*
X3348Y3840D01*
X3347Y3850D01*
X3343Y3859D01*
X3337Y3867D01*
X3329Y3873D01*
X3320Y3877D01*
X3310Y3878D01*
D02*
G37*
G36*
X3000Y3774D02*
Y3740D01*
X3034D01*
X3034Y3745D01*
X3030Y3755D01*
X3023Y3763D01*
X3015Y3770D01*
X3005Y3774D01*
X3000Y3774D01*
D02*
G37*
G36*
X3680Y3770D02*
X3645D01*
Y3735D01*
X3680D01*
Y3770D01*
D02*
G37*
G36*
X3635D02*
X3600D01*
Y3735D01*
X3635D01*
Y3770D01*
D02*
G37*
G36*
X3335Y3775D02*
X3255D01*
Y3695D01*
X3335D01*
Y3775D01*
D02*
G37*
G36*
X3195Y3775D02*
X3185Y3774D01*
X3175Y3770D01*
X3167Y3763D01*
X3160Y3755D01*
X3156Y3745D01*
X3155Y3735D01*
X3156Y3725D01*
X3160Y3715D01*
X3167Y3707D01*
X3175Y3700D01*
X3185Y3696D01*
X3195Y3695D01*
X3205Y3696D01*
X3215Y3700D01*
X3223Y3707D01*
X3230Y3715D01*
X3234Y3725D01*
X3235Y3735D01*
X3234Y3745D01*
X3230Y3755D01*
X3223Y3763D01*
X3215Y3770D01*
X3205Y3774D01*
X3195Y3775D01*
D02*
G37*
G36*
X3095D02*
X3085Y3774D01*
X3075Y3770D01*
X3067Y3763D01*
X3060Y3755D01*
X3056Y3745D01*
X3055Y3735D01*
X3056Y3725D01*
X3060Y3715D01*
X3067Y3707D01*
X3075Y3700D01*
X3085Y3696D01*
X3095Y3695D01*
X3105Y3696D01*
X3115Y3700D01*
X3123Y3707D01*
X3130Y3715D01*
X3134Y3725D01*
X3135Y3735D01*
X3134Y3745D01*
X3130Y3755D01*
X3123Y3763D01*
X3115Y3770D01*
X3105Y3774D01*
X3095Y3775D01*
D02*
G37*
G36*
X3680Y3725D02*
X3645D01*
Y3690D01*
X3680D01*
Y3725D01*
D02*
G37*
G36*
X3635D02*
X3600D01*
Y3690D01*
X3635D01*
Y3725D01*
D02*
G37*
G36*
X1825Y3714D02*
Y3680D01*
X1859D01*
X1859Y3685D01*
X1855Y3695D01*
X1848Y3703D01*
X1840Y3710D01*
X1830Y3714D01*
X1825Y3714D01*
D02*
G37*
G36*
X1815D02*
X1810Y3714D01*
X1800Y3710D01*
X1792Y3703D01*
X1785Y3695D01*
X1781Y3685D01*
X1781Y3680D01*
X1815D01*
Y3714D01*
D02*
G37*
G36*
X1859Y3670D02*
X1825D01*
Y3636D01*
X1830Y3636D01*
X1840Y3640D01*
X1848Y3647D01*
X1855Y3655D01*
X1859Y3665D01*
X1859Y3670D01*
D02*
G37*
G36*
X1815D02*
X1781D01*
X1781Y3665D01*
X1785Y3655D01*
X1792Y3647D01*
X1800Y3640D01*
X1810Y3636D01*
X1815Y3636D01*
Y3670D01*
D02*
G37*
G36*
X3640Y3670D02*
X3630Y3669D01*
X3620Y3665D01*
X3612Y3658D01*
X3605Y3650D01*
X3601Y3640D01*
X3600Y3630D01*
X3601Y3620D01*
X3605Y3610D01*
X3612Y3602D01*
X3620Y3595D01*
X3630Y3591D01*
X3640Y3590D01*
X3650Y3591D01*
X3660Y3595D01*
X3668Y3602D01*
X3675Y3610D01*
X3679Y3620D01*
X3680Y3630D01*
X3679Y3640D01*
X3675Y3650D01*
X3668Y3658D01*
X3660Y3665D01*
X3650Y3669D01*
X3640Y3670D01*
D02*
G37*
G36*
Y3570D02*
X3630Y3569D01*
X3620Y3565D01*
X3612Y3558D01*
X3605Y3550D01*
X3601Y3540D01*
X3600Y3530D01*
X3601Y3520D01*
X3605Y3510D01*
X3612Y3502D01*
X3620Y3495D01*
X3630Y3491D01*
X3640Y3490D01*
X3650Y3491D01*
X3660Y3495D01*
X3668Y3502D01*
X3675Y3510D01*
X3679Y3520D01*
X3680Y3530D01*
X3679Y3540D01*
X3675Y3550D01*
X3668Y3558D01*
X3660Y3565D01*
X3650Y3569D01*
X3640Y3570D01*
D02*
G37*
G36*
X2580Y3470D02*
X2545D01*
Y3435D01*
X2580D01*
Y3470D01*
D02*
G37*
G36*
X2535D02*
X2500D01*
Y3435D01*
X2535D01*
Y3470D01*
D02*
G37*
G36*
X2740Y3470D02*
X2730Y3469D01*
X2720Y3465D01*
X2712Y3458D01*
X2705Y3450D01*
X2701Y3440D01*
X2701Y3435D01*
X2696Y3433D01*
X2695Y3433D01*
X2690Y3437D01*
X2685Y3438D01*
X2679D01*
X2679Y3440D01*
X2675Y3450D01*
X2668Y3458D01*
X2660Y3465D01*
X2650Y3469D01*
X2640Y3470D01*
X2630Y3469D01*
X2620Y3465D01*
X2612Y3458D01*
X2605Y3450D01*
X2601Y3440D01*
X2600Y3430D01*
X2601Y3420D01*
X2605Y3410D01*
X2612Y3402D01*
X2620Y3395D01*
X2630Y3391D01*
X2640Y3390D01*
X2650Y3391D01*
X2660Y3395D01*
X2668Y3402D01*
X2672Y3407D01*
X2678D01*
X2762Y3324D01*
X2767Y3320D01*
X2773Y3319D01*
X3047D01*
X3092Y3274D01*
X3090Y3269D01*
X3085Y3269D01*
X3075Y3265D01*
X3067Y3258D01*
X3060Y3250D01*
X3056Y3240D01*
X3055Y3230D01*
X3056Y3220D01*
X3060Y3210D01*
X3067Y3202D01*
X3075Y3195D01*
X3085Y3191D01*
X3095Y3190D01*
X3105Y3191D01*
X3115Y3195D01*
X3123Y3202D01*
X3130Y3210D01*
X3130Y3212D01*
X3135Y3211D01*
Y3150D01*
X3136Y3144D01*
X3140Y3139D01*
X3398Y2880D01*
X3396Y2875D01*
X3395Y2865D01*
X3396Y2855D01*
X3400Y2845D01*
X3407Y2837D01*
X3415Y2830D01*
X3425Y2826D01*
X3435Y2825D01*
X3445Y2826D01*
X3455Y2830D01*
X3463Y2837D01*
X3470Y2845D01*
X3474Y2855D01*
X3475Y2865D01*
X3474Y2875D01*
X3470Y2885D01*
X3463Y2893D01*
X3455Y2900D01*
X3445Y2904D01*
X3435Y2905D01*
X3425Y2904D01*
X3420Y2902D01*
X3166Y3156D01*
Y3196D01*
X3171Y3199D01*
X3175Y3195D01*
X3185Y3191D01*
X3195Y3190D01*
X3205Y3191D01*
X3215Y3195D01*
X3223Y3202D01*
X3230Y3210D01*
X3234Y3220D01*
X3235Y3230D01*
X3234Y3240D01*
X3230Y3250D01*
X3223Y3258D01*
X3215Y3265D01*
X3205Y3269D01*
X3195Y3270D01*
X3185Y3269D01*
X3175Y3265D01*
X3167Y3258D01*
X3163Y3253D01*
X3157Y3253D01*
X3064Y3345D01*
X3059Y3349D01*
X3053Y3350D01*
X2779D01*
X2743Y3386D01*
X2745Y3391D01*
X2750Y3391D01*
X2760Y3395D01*
X2768Y3402D01*
X2775Y3410D01*
X2779Y3420D01*
X2780Y3430D01*
X2779Y3440D01*
X2775Y3450D01*
X2768Y3458D01*
X2760Y3465D01*
X2750Y3469D01*
X2740Y3470D01*
D02*
G37*
G36*
X2265Y3485D02*
X2185D01*
Y3405D01*
X2265D01*
Y3485D01*
D02*
G37*
G36*
X2580Y3425D02*
X2545D01*
Y3390D01*
X2580D01*
Y3425D01*
D02*
G37*
G36*
X2535D02*
X2500D01*
Y3390D01*
X2535D01*
Y3425D01*
D02*
G37*
G36*
X3635Y3435D02*
X3625Y3434D01*
X3615Y3430D01*
X3607Y3423D01*
X3600Y3415D01*
X3596Y3405D01*
X3595Y3395D01*
X3596Y3385D01*
X3600Y3375D01*
X3607Y3367D01*
X3615Y3360D01*
X3625Y3356D01*
X3635Y3355D01*
X3645Y3356D01*
X3655Y3360D01*
X3663Y3367D01*
X3670Y3375D01*
X3674Y3385D01*
X3675Y3395D01*
X3674Y3405D01*
X3670Y3415D01*
X3663Y3423D01*
X3655Y3430D01*
X3645Y3434D01*
X3635Y3435D01*
D02*
G37*
G36*
X2230Y3384D02*
Y3350D01*
X2264D01*
X2264Y3355D01*
X2260Y3365D01*
X2253Y3373D01*
X2245Y3380D01*
X2235Y3384D01*
X2230Y3384D01*
D02*
G37*
G36*
X2220D02*
X2215Y3384D01*
X2205Y3380D01*
X2197Y3373D01*
X2190Y3365D01*
X2186Y3355D01*
X2186Y3350D01*
X2220D01*
Y3384D01*
D02*
G37*
G36*
X2264Y3340D02*
X2230D01*
Y3306D01*
X2235Y3306D01*
X2245Y3310D01*
X2253Y3317D01*
X2260Y3325D01*
X2264Y3335D01*
X2264Y3340D01*
D02*
G37*
G36*
X2220D02*
X2186D01*
X2186Y3335D01*
X2190Y3325D01*
X2197Y3317D01*
X2205Y3310D01*
X2215Y3306D01*
X2220Y3306D01*
Y3340D01*
D02*
G37*
G36*
X3635Y3335D02*
X3625Y3334D01*
X3615Y3330D01*
X3607Y3323D01*
X3600Y3315D01*
X3596Y3305D01*
X3595Y3295D01*
X3596Y3285D01*
X3600Y3275D01*
X3607Y3267D01*
X3615Y3260D01*
X3625Y3256D01*
X3635Y3255D01*
X3645Y3256D01*
X3655Y3260D01*
X3663Y3267D01*
X3670Y3275D01*
X3674Y3285D01*
X3675Y3295D01*
X3674Y3305D01*
X3670Y3315D01*
X3663Y3323D01*
X3655Y3330D01*
X3645Y3334D01*
X3635Y3335D01*
D02*
G37*
G36*
X1820Y3615D02*
X1810Y3614D01*
X1800Y3610D01*
X1792Y3603D01*
X1785Y3595D01*
X1781Y3585D01*
X1780Y3575D01*
X1781Y3565D01*
X1785Y3555D01*
X1792Y3547D01*
X1800Y3540D01*
X1810Y3536D01*
X1820Y3535D01*
X1830Y3536D01*
X1835Y3538D01*
X2139Y3234D01*
X2144Y3231D01*
X2150Y3230D01*
X2189D01*
X2190Y3225D01*
X2197Y3217D01*
X2205Y3210D01*
X2215Y3206D01*
X2225Y3205D01*
X2235Y3206D01*
X2245Y3210D01*
X2253Y3217D01*
X2260Y3225D01*
X2264Y3235D01*
X2265Y3245D01*
X2264Y3255D01*
X2260Y3265D01*
X2253Y3273D01*
X2245Y3280D01*
X2235Y3284D01*
X2225Y3285D01*
X2215Y3284D01*
X2205Y3280D01*
X2197Y3273D01*
X2190Y3265D01*
X2189Y3260D01*
X2156D01*
X1857Y3560D01*
X1859Y3565D01*
X1860Y3575D01*
X1859Y3585D01*
X1855Y3595D01*
X1848Y3603D01*
X1840Y3610D01*
X1830Y3614D01*
X1820Y3615D01*
D02*
G37*
G36*
X3675Y3235D02*
X3640D01*
Y3200D01*
X3675D01*
Y3235D01*
D02*
G37*
G36*
X3630D02*
X3595D01*
Y3200D01*
X3630D01*
Y3235D01*
D02*
G37*
G36*
X2995Y3270D02*
X2985Y3269D01*
X2975Y3265D01*
X2967Y3258D01*
X2960Y3250D01*
X2956Y3240D01*
X2955Y3230D01*
X2956Y3220D01*
X2960Y3210D01*
X2967Y3202D01*
X2975Y3195D01*
X2985Y3191D01*
X2995Y3190D01*
X3005Y3191D01*
X3015Y3195D01*
X3023Y3202D01*
X3030Y3210D01*
X3034Y3220D01*
X3035Y3230D01*
X3034Y3240D01*
X3030Y3250D01*
X3023Y3258D01*
X3015Y3265D01*
X3005Y3269D01*
X2995Y3270D01*
D02*
G37*
G36*
X3675Y3190D02*
X3640D01*
Y3155D01*
X3675D01*
Y3190D01*
D02*
G37*
G36*
X3630D02*
X3595D01*
Y3155D01*
X3630D01*
Y3190D01*
D02*
G37*
G36*
X2225Y3185D02*
X2215Y3184D01*
X2205Y3180D01*
X2197Y3173D01*
X2190Y3165D01*
X2186Y3155D01*
X2185Y3145D01*
X2186Y3135D01*
X2190Y3125D01*
X2197Y3117D01*
X2205Y3110D01*
X2215Y3106D01*
X2225Y3105D01*
X2235Y3106D01*
X2245Y3110D01*
X2253Y3117D01*
X2260Y3125D01*
X2264Y3135D01*
X2265Y3145D01*
X2264Y3155D01*
X2260Y3165D01*
X2253Y3173D01*
X2245Y3180D01*
X2235Y3184D01*
X2225Y3185D01*
D02*
G37*
G36*
Y3085D02*
X2215Y3084D01*
X2205Y3080D01*
X2197Y3073D01*
X2190Y3065D01*
X2186Y3055D01*
X2185Y3045D01*
X2186Y3035D01*
X2190Y3025D01*
X2197Y3017D01*
X2205Y3010D01*
X2215Y3006D01*
X2225Y3005D01*
X2235Y3006D01*
X2245Y3010D01*
X2253Y3017D01*
X2260Y3025D01*
X2264Y3035D01*
X2265Y3045D01*
X2264Y3055D01*
X2260Y3065D01*
X2253Y3073D01*
X2245Y3080D01*
X2235Y3084D01*
X2225Y3085D01*
D02*
G37*
G36*
Y2985D02*
X2215Y2984D01*
X2205Y2980D01*
X2197Y2973D01*
X2190Y2965D01*
X2186Y2955D01*
X2185Y2945D01*
X2186Y2935D01*
X2190Y2925D01*
X2197Y2917D01*
X2205Y2910D01*
X2215Y2906D01*
X2225Y2905D01*
X2235Y2906D01*
X2245Y2910D01*
X2253Y2917D01*
X2260Y2925D01*
X2264Y2935D01*
X2265Y2945D01*
X2264Y2955D01*
X2260Y2965D01*
X2253Y2973D01*
X2245Y2980D01*
X2235Y2984D01*
X2225Y2985D01*
D02*
G37*
G36*
X2905Y2904D02*
Y2870D01*
X2939D01*
X2939Y2875D01*
X2935Y2885D01*
X2928Y2893D01*
X2920Y2900D01*
X2910Y2904D01*
X2905Y2904D01*
D02*
G37*
G36*
X2895D02*
X2890Y2904D01*
X2880Y2900D01*
X2872Y2893D01*
X2865Y2885D01*
X2861Y2875D01*
X2861Y2870D01*
X2895D01*
Y2904D01*
D02*
G37*
G36*
X2805D02*
Y2870D01*
X2839D01*
X2839Y2875D01*
X2835Y2885D01*
X2828Y2893D01*
X2820Y2900D01*
X2810Y2904D01*
X2805Y2904D01*
D02*
G37*
G36*
X2795D02*
X2790Y2904D01*
X2780Y2900D01*
X2772Y2893D01*
X2765Y2885D01*
X2761Y2875D01*
X2761Y2870D01*
X2795D01*
Y2904D01*
D02*
G37*
G36*
X2939Y2860D02*
X2905D01*
Y2826D01*
X2910Y2826D01*
X2920Y2830D01*
X2928Y2837D01*
X2935Y2845D01*
X2939Y2855D01*
X2939Y2860D01*
D02*
G37*
G36*
X2895D02*
X2861D01*
X2861Y2855D01*
X2865Y2845D01*
X2872Y2837D01*
X2880Y2830D01*
X2890Y2826D01*
X2895Y2826D01*
Y2860D01*
D02*
G37*
G36*
X2839D02*
X2805D01*
Y2826D01*
X2810Y2826D01*
X2820Y2830D01*
X2828Y2837D01*
X2835Y2845D01*
X2839Y2855D01*
X2839Y2860D01*
D02*
G37*
G36*
X2795D02*
X2761D01*
X2761Y2855D01*
X2765Y2845D01*
X2772Y2837D01*
X2780Y2830D01*
X2790Y2826D01*
X2795Y2826D01*
Y2860D01*
D02*
G37*
G36*
X3275Y2905D02*
X3195D01*
Y2825D01*
X3275D01*
Y2905D01*
D02*
G37*
G36*
X2540D02*
X2460D01*
Y2825D01*
X2540D01*
Y2905D01*
D02*
G37*
G36*
X1820Y4015D02*
X1810Y4014D01*
X1800Y4010D01*
X1792Y4003D01*
X1785Y3995D01*
X1781Y3985D01*
X1780Y3975D01*
X1781Y3965D01*
X1785Y3955D01*
X1792Y3947D01*
X1800Y3940D01*
X1810Y3936D01*
X1820Y3935D01*
X1830Y3936D01*
X1840Y3940D01*
X1848Y3947D01*
X1855Y3955D01*
X1856Y3960D01*
X2686D01*
X3720Y2926D01*
Y2901D01*
X3715Y2900D01*
X3707Y2893D01*
X3700Y2885D01*
X3696Y2875D01*
X3695Y2865D01*
X3696Y2855D01*
X3700Y2845D01*
X3707Y2837D01*
X3715Y2830D01*
X3725Y2826D01*
X3735Y2825D01*
X3745Y2826D01*
X3755Y2830D01*
X3763Y2837D01*
X3770Y2845D01*
X3774Y2855D01*
X3775Y2865D01*
X3774Y2875D01*
X3770Y2885D01*
X3763Y2893D01*
X3755Y2900D01*
X3750Y2901D01*
Y2932D01*
X3749Y2938D01*
X3746Y2943D01*
X2998Y3691D01*
X3000Y3696D01*
X3005Y3696D01*
X3015Y3700D01*
X3023Y3707D01*
X3030Y3715D01*
X3034Y3725D01*
X3034Y3730D01*
X2995D01*
Y3735D01*
X2990D01*
Y3774D01*
X2985Y3774D01*
X2975Y3770D01*
X2967Y3763D01*
X2960Y3755D01*
X2956Y3745D01*
X2956Y3740D01*
X2951Y3738D01*
X2703Y3986D01*
X2698Y3989D01*
X2692Y3990D01*
X1856D01*
X1855Y3995D01*
X1848Y4003D01*
X1840Y4010D01*
X1830Y4014D01*
X1820Y4015D01*
D02*
G37*
G36*
Y3815D02*
X1810Y3814D01*
X1800Y3810D01*
X1792Y3803D01*
X1785Y3795D01*
X1781Y3785D01*
X1780Y3775D01*
X1781Y3765D01*
X1785Y3755D01*
X1792Y3747D01*
X1800Y3740D01*
X1810Y3736D01*
X1820Y3735D01*
X1830Y3736D01*
X1840Y3740D01*
X1848Y3747D01*
X1855Y3755D01*
X1856Y3760D01*
X2824D01*
X3309Y3274D01*
X3308Y3270D01*
X3255D01*
Y3190D01*
X3335D01*
Y3243D01*
X3339Y3244D01*
X3615Y2969D01*
Y2940D01*
X3616Y2934D01*
X3619Y2929D01*
X3620Y2929D01*
Y2901D01*
X3615Y2900D01*
X3607Y2893D01*
X3600Y2885D01*
X3596Y2875D01*
X3595Y2865D01*
X3596Y2855D01*
X3600Y2845D01*
X3607Y2837D01*
X3615Y2830D01*
X3625Y2826D01*
X3635Y2825D01*
X3645Y2826D01*
X3655Y2830D01*
X3663Y2837D01*
X3670Y2845D01*
X3674Y2855D01*
X3675Y2865D01*
X3674Y2875D01*
X3670Y2885D01*
X3663Y2893D01*
X3655Y2900D01*
X3650Y2901D01*
Y2935D01*
X3649Y2941D01*
X3646Y2946D01*
X3645Y2946D01*
Y2975D01*
X3644Y2981D01*
X3641Y2986D01*
X2841Y3786D01*
X2836Y3789D01*
X2830Y3790D01*
X1856D01*
X1855Y3795D01*
X1848Y3803D01*
X1840Y3810D01*
X1830Y3814D01*
X1820Y3815D01*
D02*
G37*
G36*
X3535Y2905D02*
X3525Y2904D01*
X3515Y2900D01*
X3507Y2893D01*
X3500Y2885D01*
X3496Y2875D01*
X3495Y2865D01*
X3496Y2855D01*
X3500Y2845D01*
X3507Y2837D01*
X3515Y2830D01*
X3525Y2826D01*
X3535Y2825D01*
X3545Y2826D01*
X3555Y2830D01*
X3563Y2837D01*
X3570Y2845D01*
X3574Y2855D01*
X3575Y2865D01*
X3574Y2875D01*
X3570Y2885D01*
X3563Y2893D01*
X3555Y2900D01*
X3545Y2904D01*
X3535Y2905D01*
D02*
G37*
G36*
X3335D02*
X3325Y2904D01*
X3315Y2900D01*
X3307Y2893D01*
X3300Y2885D01*
X3296Y2875D01*
X3295Y2865D01*
X3296Y2855D01*
X3300Y2845D01*
X3307Y2837D01*
X3315Y2830D01*
X3325Y2826D01*
X3335Y2825D01*
X3345Y2826D01*
X3355Y2830D01*
X3363Y2837D01*
X3370Y2845D01*
X3374Y2855D01*
X3375Y2865D01*
X3374Y2875D01*
X3370Y2885D01*
X3363Y2893D01*
X3355Y2900D01*
X3345Y2904D01*
X3335Y2905D01*
D02*
G37*
G36*
X3000D02*
X2990Y2904D01*
X2980Y2900D01*
X2972Y2893D01*
X2965Y2885D01*
X2961Y2875D01*
X2960Y2865D01*
X2961Y2855D01*
X2965Y2845D01*
X2972Y2837D01*
X2980Y2830D01*
X2990Y2826D01*
X3000Y2825D01*
X3010Y2826D01*
X3020Y2830D01*
X3028Y2837D01*
X3035Y2845D01*
X3039Y2855D01*
X3040Y2865D01*
X3039Y2875D01*
X3035Y2885D01*
X3028Y2893D01*
X3020Y2900D01*
X3010Y2904D01*
X3000Y2905D01*
D02*
G37*
G36*
X2700D02*
X2690Y2904D01*
X2680Y2900D01*
X2672Y2893D01*
X2665Y2885D01*
X2661Y2875D01*
X2660Y2865D01*
X2661Y2855D01*
X2665Y2845D01*
X2672Y2837D01*
X2680Y2830D01*
X2690Y2826D01*
X2700Y2825D01*
X2710Y2826D01*
X2720Y2830D01*
X2728Y2837D01*
X2735Y2845D01*
X2739Y2855D01*
X2740Y2865D01*
X2739Y2875D01*
X2735Y2885D01*
X2728Y2893D01*
X2720Y2900D01*
X2710Y2904D01*
X2700Y2905D01*
D02*
G37*
G36*
X2600D02*
X2590Y2904D01*
X2580Y2900D01*
X2572Y2893D01*
X2565Y2885D01*
X2561Y2875D01*
X2560Y2865D01*
X2561Y2855D01*
X2565Y2845D01*
X2572Y2837D01*
X2580Y2830D01*
X2590Y2826D01*
X2600Y2825D01*
X2610Y2826D01*
X2620Y2830D01*
X2628Y2837D01*
X2635Y2845D01*
X2639Y2855D01*
X2640Y2865D01*
X2639Y2875D01*
X2635Y2885D01*
X2628Y2893D01*
X2620Y2900D01*
X2610Y2904D01*
X2600Y2905D01*
D02*
G37*
%LPD*%
D10*
X3150Y3150D02*
X3435Y2865D01*
X3150Y3150D02*
Y3237D01*
X3053Y3335D02*
X3150Y3237D01*
X2773Y3335D02*
X3053D01*
X2685Y3423D02*
X2773Y3335D01*
X2647Y3423D02*
X2685D01*
X2640Y3430D02*
X2647Y3423D01*
X3825Y4170D02*
Y4345D01*
X3385Y4785D02*
X3825Y4345D01*
X3371Y4785D02*
X3385D01*
X3725Y4173D02*
Y4365D01*
X3524Y4566D02*
X3725Y4365D01*
X3490Y4566D02*
X3524D01*
X2225Y3243D02*
Y3245D01*
X2600Y2865D02*
Y2868D01*
X2150Y3245D02*
X2225D01*
X1820Y3575D02*
X2150Y3245D01*
X2692Y3975D02*
X3735Y2932D01*
Y2865D02*
Y2932D01*
X1820Y3975D02*
X2692D01*
X3635Y2865D02*
Y2935D01*
X3630Y2940D02*
X3635Y2935D01*
X3630Y2940D02*
Y2975D01*
X2830Y3775D02*
X3630Y2975D01*
X1820Y3775D02*
X2830D01*
X3171Y4785D02*
X3615Y4341D01*
Y4154D02*
Y4341D01*
X3601Y4140D02*
X3615Y4154D01*
X3506Y4284D02*
Y4374D01*
X3095Y4785D02*
X3506Y4374D01*
X3505Y4141D02*
Y4283D01*
X3506Y4284D01*
X3071Y4785D02*
X3095D01*
X2746D02*
X3180Y4351D01*
Y4270D02*
Y4351D01*
X2709Y4785D02*
X2746D01*
X2996Y4740D02*
Y4760D01*
X2971Y4785D02*
X2996Y4760D01*
X3180Y4270D02*
X3310Y4140D01*
X2996Y4740D02*
X3406Y4330D01*
Y4141D02*
Y4330D01*
Y4141D02*
X3407Y4140D01*
X3504D02*
X3505Y4141D01*
X3698Y4140D02*
Y4146D01*
X3725Y4173D01*
X3271Y4785D02*
X3490Y4566D01*
X3795Y4140D02*
Y4140D01*
X3825Y4170D01*
D18*
X3775Y4330D02*
D03*
X3553D02*
D03*
X3331D02*
D03*
X3109D02*
D03*
X2887D02*
D03*
X2665D02*
D03*
D19*
X3675D02*
D03*
X3453D02*
D03*
X3231D02*
D03*
X3009D02*
D03*
X2787D02*
D03*
X2565D02*
D03*
D20*
X3295Y3735D02*
D03*
X2540Y3430D02*
D03*
X3235Y2865D02*
D03*
X2500D02*
D03*
X2971Y4785D02*
D03*
X2109D02*
D03*
X3295Y3230D02*
D03*
D21*
X3195Y3735D02*
D03*
X3095D02*
D03*
X2995D02*
D03*
X2740Y3430D02*
D03*
X2640D02*
D03*
X3735Y2865D02*
D03*
X3635D02*
D03*
X3535D02*
D03*
X3435D02*
D03*
X3335D02*
D03*
X3000D02*
D03*
X2900D02*
D03*
X2800D02*
D03*
X2700D02*
D03*
X2600D02*
D03*
X2225Y2945D02*
D03*
Y3045D02*
D03*
Y3145D02*
D03*
Y3245D02*
D03*
Y3345D02*
D03*
X1820Y3575D02*
D03*
Y3675D02*
D03*
Y3775D02*
D03*
Y3875D02*
D03*
Y3975D02*
D03*
X3071Y4785D02*
D03*
X3171D02*
D03*
X3271D02*
D03*
X3371D02*
D03*
X3471D02*
D03*
X3571D02*
D03*
X3671D02*
D03*
X2209D02*
D03*
X2309D02*
D03*
X2409D02*
D03*
X2509D02*
D03*
X2609D02*
D03*
X2709D02*
D03*
X2809D02*
D03*
X3635Y3295D02*
D03*
Y3395D02*
D03*
X2995Y3230D02*
D03*
X3095D02*
D03*
X3195D02*
D03*
X3640Y3630D02*
D03*
Y3530D02*
D03*
D22*
X2225Y3445D02*
D03*
X1820Y4075D02*
D03*
X3635Y3195D02*
D03*
X3640Y3730D02*
D03*
D23*
X3795Y4140D02*
D03*
Y3840D02*
D03*
X3698Y4140D02*
D03*
Y3840D02*
D03*
X3601Y4140D02*
D03*
Y3840D02*
D03*
X3504Y4140D02*
D03*
Y3840D02*
D03*
X3407Y4140D02*
D03*
Y3840D02*
D03*
X3310Y4140D02*
D03*
Y3840D02*
D03*
M02*
