M48
;Layer_Color=9474304
;FILE_FORMAT=2:3
INCH,LZ
;TYPE=PLATED
T1F00S00C0.030
T2F00S00C0.033
T3F00S00C0.035
%
T01
X02565Y0433
X02665
X02787
X02887
X03009
X03109
X03231
X03331
X03453
X03553
X03675
X03775
T02
X0331Y0384
X03407
X03504
X03601
X03698
X03795
Y0414
X03698
X03601
X03504
X03407
X0331
T03
X03235Y02865
X03335
X03435
X03535
X03635
X03735
X03
X029
X028
X027
X026
X025
X02225Y02945
Y03045
Y03145
Y03245
Y03345
Y03445
X0254Y0343
X0264
X0274
X02995Y0323
X03095
Y03735
X02995
X0182Y03775
Y03675
Y03575
Y03875
Y03975
Y04075
X03195Y03735
X03295
X0364Y0373
Y0363
Y0353
X03635Y03395
Y03295
Y03195
X03295Y0323
X03195
X03171Y04785
X03271
X03371
X03471
X03571
X03671
X03071
X02971
X02809
X02709
X02609
X02509
X02409
X02309
X02209
X02109
M30
